<svg id="Capa_1" xmlns="http://www.w3.org/2000/svg" viewBox="0 0 1010 461.6"><path d="M18.1 139L30 155.4h-7.1l-11-15.8h-1v15.8H5.1v-38.5h6.8c5.1 0 8.8 1 11 2.9 2.5 2.1 3.7 4.9 3.7 8.4 0 2.7-.8 5.1-2.3 7-1.5 2-3.6 3.2-6.2 3.8zm-7.2-4.4h1.8c5.5 0 8.3-2.1 8.3-6.3 0-3.9-2.7-5.9-8-5.9h-2.1v12.2zM159.2 122.4h-15.4v9.3h15v5.5h-15v12.9h15.4v5.5H138v-38.5h21.2v5.3zM270.9 116.9l10.6 26.7 10.8-26.7h6.4l-17.3 41.4-16.9-41.4h6.4zM411.4 116.9v38.5h-5.8v-38.5h5.8zM544.5 122.6l-4.7 2.8c-.9-1.5-1.7-2.5-2.5-3s-1.9-.8-3.2-.8c-1.6 0-3 .5-4 1.4-1.1.9-1.6 2-1.6 3.4 0 1.9 1.4 3.4 4.2 4.5l3.8 1.6c3.1 1.3 5.4 2.8 6.9 4.6 1.4 1.8 2.2 4.1 2.2 6.7 0 3.5-1.2 6.5-3.5 8.8-2.4 2.3-5.3 3.5-8.9 3.5-3.3 0-6.1-1-8.3-3-2.1-2-3.5-4.8-4-8.4l5.9-1.3c.3 2.3.7 3.8 1.4 4.7 1.2 1.7 2.9 2.5 5.2 2.5 1.8 0 3.3-.6 4.5-1.8 1.2-1.2 1.8-2.7 1.8-4.6 0-.7-.1-1.4-.3-2.1-.2-.6-.5-1.2-1-1.7-.4-.5-1-1-1.7-1.5s-1.5-.9-2.5-1.3l-3.7-1.5c-5.3-2.2-7.9-5.5-7.9-9.8 0-2.9 1.1-5.3 3.3-7.3 2.2-2 5-2.9 8.3-2.9 4.4.1 7.8 2.2 10.3 6.5zM666 122.4v33h-5.8v-33h-8.9v-5.5h23.5v5.5H666zM802.6 146.1h-16.5l-4.3 9.4h-6.3l19-40.9 18.4 40.9h-6.4l-3.9-9.4zm-2.3-5.5l-5.7-13.1-6 13.1h11.7zM65.8 230v18.6c0 22.8-10.9 35.3-33.1 35.3H22.2v53.6H0V194.7h32.7c22.2 0 33.1 12.5 33.1 35.3zm-43.6-14.9v48.3h10.5c7.1 0 10.9-3.3 10.9-13.5v-21.4c0-10.2-3.8-13.5-10.9-13.5H22.2zM151.4 337.5H129l-3.8-25.9H97.9l-3.8 25.9H73.7l22.6-142.8h32.5l22.6 142.8zm-50.7-45.3h21.4L111.4 220l-10.7 72.2zM164.7 229c0-22.8 11.9-35.9 33.7-35.9 21.8 0 33.7 13.1 33.7 35.9v74.2c0 8-1.4 14.7-4.2 20 1 2.6 2.6 3.1 6.3 3.1h2v20h-3c-9.9 0-16.1-3.7-19.2-9.8-4.4 1.6-9.7 2.7-15.5 2.7-21.8 0-33.7-13.1-33.7-35.9V229zm22.2 75.7c0 10.2 4.4 14.1 11.5 14.1s11.5-3.9 11.5-14.1v-77.1c0-10.2-4.4-14.1-11.5-14.1s-11.5 3.9-11.5 14.1v77.1zM272.7 194.7v110.1c0 10.2 4.4 13.9 11.5 13.9s11.5-3.7 11.5-13.9V194.7h21v108.7c0 22.8-11.3 35.9-33.1 35.9s-33.1-13.1-33.1-35.9V194.7h22.2zM336.9 194.7h22.2v142.8h-22.2V194.7zM380.3 194.7h35.1c22.2 0 33.1 12.4 33.1 35.3v72.2c0 22.8-10.9 35.3-33.1 35.3h-35.1V194.7zm22.2 20.4v102H415c7.1 0 11.3-3.7 11.3-13.9V229c0-10.2-4.2-13.9-11.3-13.9h-12.5zM489.9 254.9h30.5v20.4h-30.5v41.8h38.4v20.4h-60.6V194.7h60.6v20.4h-38.4v39.8zM593.4 337.5c-1.2-3.7-2-5.9-2-17.5v-22.4c0-13.3-4.4-18.2-14.5-18.2h-7.7v58.1H547V194.7h33.5c23 0 32.9 10.8 32.9 32.8v11.2c0 14.7-4.6 24.3-14.5 29 11.1 4.7 14.7 15.5 14.7 30.4v22c0 6.9.2 12 2.4 17.3h-22.6zm-24.2-122.4V259h8.7c8.3 0 13.3-3.7 13.3-15.1v-14.1c0-10.2-3.4-14.7-11.3-14.7h-10.7zM680.2 296.1l15.1-101.4h30.9v142.8h-21V235.1l-15.3 102.4h-21l-16.5-101v101H633V194.7h30.9l16.3 101.4zM745.6 229c0-22.8 11.9-35.9 33.7-35.9 21.8 0 33.7 13.1 33.7 35.9v74.2c0 22.8-11.9 35.9-33.7 35.9-21.8 0-33.7-13.1-33.7-35.9V229zm22.2 75.7c0 10.2 4.4 14.1 11.5 14.1s11.5-3.9 11.5-14.1v-77.1c0-10.2-4.4-14.1-11.5-14.1s-11.5 3.9-11.5 14.1v77.1z"/><g><path d="M854 77v144h85.9c0 .3 0 .6.1.9 6.4 13 19.8 21.8 35.2 21.7 3 0 5.8-.4 8.6-1.1-7.1 8.2-17.6 13.3-29.3 13.2-7.9 0-13.3-1.5-17.5-4.6-1.5 5-3.4 10.1-5.8 15.3-12.8 29.5-40.3 50-77.2 61.3v56.9c48.5-9.9 88.9-30.5 115.7-61.9 26.8-31.4 40.2-74.8 40.2-130.3V77H854z"/></g></svg>